<svg width="1600" height="640" viewBox="0 0 1600 640" fill="none" xmlns="http://www.w3.org/2000/svg">
<g clip-path="url(#clip0_2_16)" filter="url(#filter0_d_2_16)">
<path fill-rule="evenodd" clip-rule="evenodd" d="M272.747 301.972C272.747 301.972 234.485 284.484 115.307 297.636C115.307 297.636 73.6684 300.527 56 271.187C56 271.187 86.7227 344.466 82.2212 400.256C82.2212 400.256 134.664 301.972 272.747 301.972Z" fill="#01C3AC"/>
<path fill-rule="evenodd" clip-rule="evenodd" d="M191.045 259.913C191.045 259.913 588.19 9.29005 885.965 132.433C885.965 132.433 991.638 183.02 1070.86 266.417C1070.86 266.417 1045.54 313.246 1005.82 275.233C1005.82 275.233 781.755 -35.8048 191.045 259.913Z" fill="#00BC7D"/>
<path fill-rule="evenodd" clip-rule="evenodd" d="M472.389 183.31C472.389 183.31 364.015 218.431 442.792 234.619C442.792 234.619 755.421 275.667 843.313 271.187C931.092 266.851 664.153 283.038 463.274 266.851C463.274 266.851 235.16 244.881 472.389 183.31Z" fill="#058062"/>
<path fill-rule="evenodd" clip-rule="evenodd" d="M910.16 329.868C910.16 329.868 1232.02 104.972 1533.17 458.07C1533.17 458.07 1491.08 481.918 1406.56 415.288C1301.9 332.758 1206.47 223.635 910.16 329.868Z" fill="#01C3AC"/>
<path d="M278.988 367.8C280.688 366.8 283.238 365.85 286.638 364.95C290.138 364.05 293.638 363.6 297.138 363.6C302.138 363.6 306.538 364.35 310.338 365.85C314.238 367.25 316.738 369.5 317.838 372.6C319.638 377.8 321.588 383.85 323.688 390.75C325.788 397.65 327.888 404.8 329.988 412.2C332.088 419.5 334.138 426.75 336.138 433.95C338.138 441.05 339.888 447.35 341.388 452.85C340.188 454.25 338.388 455.35 335.988 456.15C333.588 457.05 330.738 457.5 327.438 457.5C325.038 457.5 322.988 457.3 321.288 456.9C319.688 456.5 318.338 455.9 317.238 455.1C316.238 454.3 315.388 453.25 314.688 451.95C314.088 450.65 313.538 449.15 313.038 447.45L310.338 437.1H283.188C282.388 440.1 281.588 443.2 280.788 446.4C279.988 449.6 279.188 452.7 278.388 455.7C276.988 456.2 275.488 456.6 273.888 456.9C272.388 457.3 270.538 457.5 268.338 457.5C263.238 457.5 259.438 456.65 256.938 454.95C254.538 453.15 253.338 450.7 253.338 447.6C253.338 446.2 253.538 444.8 253.938 443.4C254.338 442 254.788 440.35 255.288 438.45C255.988 435.75 256.938 432.4 258.138 428.4C259.438 424.4 260.838 420.1 262.338 415.5C263.838 410.8 265.438 406 267.138 401.1C268.838 396.2 270.438 391.6 271.938 387.3C273.438 382.9 274.788 379 275.988 375.6C277.288 372.2 278.288 369.6 278.988 367.8ZM296.988 387.15C295.588 391.35 293.988 396.05 292.188 401.25C290.488 406.35 288.938 411.55 287.538 416.85H306.138C304.738 411.45 303.288 406.2 301.788 401.1C300.388 395.9 299.088 391.25 297.888 387.15H296.988ZM362.559 384.15C363.559 383.85 365.109 383.55 367.209 383.25C369.409 382.95 371.659 382.8 373.959 382.8C376.159 382.8 378.109 382.95 379.809 383.25C381.609 383.55 383.109 384.15 384.309 385.05C385.509 385.95 386.409 387.2 387.009 388.8C387.709 390.3 388.059 392.3 388.059 394.8V427.05C388.059 431.15 389.059 434.1 391.059 435.9C393.059 437.6 395.959 438.45 399.759 438.45C402.059 438.45 403.909 438.25 405.309 437.85C406.809 437.45 407.959 437.05 408.759 436.65V384.15C409.759 383.85 411.309 383.55 413.409 383.25C415.609 382.95 417.859 382.8 420.159 382.8C422.359 382.8 424.309 382.95 426.009 383.25C427.809 383.55 429.309 384.15 430.509 385.05C431.709 385.95 432.609 387.2 433.209 388.8C433.909 390.3 434.259 392.3 434.259 394.8V440.4C434.259 445.4 432.159 449.15 427.959 451.65C424.459 453.85 420.259 455.5 415.359 456.6C410.559 457.8 405.309 458.4 399.609 458.4C394.209 458.4 389.209 457.8 384.609 456.6C380.109 455.4 376.209 453.55 372.909 451.05C369.609 448.55 367.059 445.35 365.259 441.45C363.459 437.45 362.559 432.65 362.559 427.05V384.15ZM487.363 430.95C487.363 433.55 488.163 435.4 489.763 436.5C491.463 437.6 493.813 438.15 496.813 438.15C498.313 438.15 499.863 438.05 501.463 437.85C503.063 437.55 504.463 437.2 505.663 436.8C506.563 437.9 507.313 439.15 507.913 440.55C508.613 441.85 508.963 443.45 508.963 445.35C508.963 449.15 507.513 452.25 504.613 454.65C501.813 457.05 496.813 458.25 489.613 458.25C480.813 458.25 474.013 456.25 469.213 452.25C464.513 448.25 462.163 441.75 462.163 432.75V368.55C463.263 368.25 464.813 367.95 466.813 367.65C468.913 367.25 471.113 367.05 473.413 367.05C477.813 367.05 481.213 367.85 483.613 369.45C486.113 370.95 487.363 374.2 487.363 379.2V388.8H507.013C507.613 389.9 508.163 391.3 508.663 393C509.263 394.6 509.563 396.4 509.563 398.4C509.563 401.9 508.763 404.45 507.163 406.05C505.663 407.55 503.613 408.3 501.013 408.3H487.363V430.95ZM608.493 419.55C608.493 425.75 607.543 431.3 605.643 436.2C603.743 441 601.043 445.05 597.543 448.35C594.143 451.65 590.043 454.15 585.243 455.85C580.443 457.55 575.093 458.4 569.193 458.4C563.293 458.4 557.943 457.5 553.143 455.7C548.343 453.9 544.193 451.35 540.693 448.05C537.293 444.65 534.643 440.55 532.743 435.75C530.843 430.95 529.893 425.55 529.893 419.55C529.893 413.65 530.843 408.3 532.743 403.5C534.643 398.7 537.293 394.65 540.693 391.35C544.193 387.95 548.343 385.35 553.143 383.55C557.943 381.75 563.293 380.85 569.193 380.85C575.093 380.85 580.443 381.8 585.243 383.7C590.043 385.5 594.143 388.1 597.543 391.5C601.043 394.8 603.743 398.85 605.643 403.65C607.543 408.45 608.493 413.75 608.493 419.55ZM555.993 419.55C555.993 425.65 557.143 430.35 559.443 433.65C561.843 436.85 565.143 438.45 569.343 438.45C573.543 438.45 576.743 436.8 578.943 433.5C581.243 430.2 582.393 425.55 582.393 419.55C582.393 413.55 581.243 408.95 578.943 405.75C576.643 402.45 573.393 400.8 569.193 400.8C564.993 400.8 561.743 402.45 559.443 405.75C557.143 408.95 555.993 413.55 555.993 419.55ZM681.234 383.4C673.534 383.4 667.634 385.75 663.534 390.45C659.434 395.15 657.384 401.8 657.384 410.4C657.384 419.1 659.634 425.8 664.134 430.5C668.734 435.2 674.884 437.55 682.584 437.55C686.684 437.55 690.134 437 692.934 435.9C695.834 434.8 698.584 433.55 701.184 432.15C702.884 433.55 704.184 435.25 705.084 437.25C706.084 439.15 706.584 441.4 706.584 444C706.584 448.1 704.284 451.6 699.684 454.5C695.184 457.3 688.284 458.7 678.984 458.7C672.284 458.7 665.984 457.75 660.084 455.85C654.184 453.95 649.034 451.05 644.634 447.15C640.234 443.15 636.734 438.15 634.134 432.15C631.634 426.05 630.384 418.8 630.384 410.4C630.384 402.6 631.584 395.75 633.984 389.85C636.484 383.85 639.834 378.8 644.034 374.7C648.334 370.6 653.334 367.5 659.034 365.4C664.734 363.3 670.834 362.25 677.334 362.25C686.534 362.25 693.634 363.75 698.634 366.75C703.734 369.75 706.284 373.6 706.284 378.3C706.284 380.9 705.634 383.15 704.334 385.05C703.034 386.95 701.534 388.45 699.834 389.55C697.234 387.85 694.434 386.4 691.434 385.2C688.534 384 685.134 383.4 681.234 383.4ZM802.627 455.85C801.627 456.15 800.027 456.45 797.827 456.75C795.727 457.05 793.527 457.2 791.227 457.2C789.027 457.2 787.027 457.05 785.227 456.75C783.527 456.45 782.077 455.85 780.877 454.95C779.677 454.05 778.727 452.85 778.027 451.35C777.427 449.75 777.127 447.7 777.127 445.2V411.9C777.127 407.8 776.077 404.95 773.977 403.35C771.977 401.65 769.477 400.8 766.477 400.8C764.477 400.8 762.577 401.05 760.777 401.55C758.977 402.05 757.527 402.65 756.427 403.35V455.85C755.427 456.15 753.827 456.45 751.627 456.75C749.527 457.05 747.327 457.2 745.027 457.2C742.827 457.2 740.827 457.05 739.027 456.75C737.327 456.45 735.877 455.85 734.677 454.95C733.477 454.05 732.527 452.85 731.827 451.35C731.227 449.75 730.927 447.7 730.927 445.2V358.2C732.027 358 733.627 357.75 735.727 357.45C737.927 357.05 740.127 356.85 742.327 356.85C744.527 356.85 746.477 357 748.177 357.3C749.977 357.6 751.477 358.2 752.677 359.1C753.877 360 754.777 361.25 755.377 362.85C756.077 364.35 756.427 366.35 756.427 368.85V383.55C757.727 383.05 759.677 382.5 762.277 381.9C764.977 381.2 767.927 380.85 771.127 380.85C781.027 380.85 788.727 383.35 794.227 388.35C799.827 393.25 802.627 400.6 802.627 410.4V455.85ZM868.921 458.4C863.021 458.4 857.521 457.6 852.421 456C847.421 454.3 843.021 451.8 839.221 448.5C835.521 445.2 832.571 441.05 830.371 436.05C828.271 431.05 827.221 425.2 827.221 418.5C827.221 411.9 828.271 406.25 830.371 401.55C832.571 396.75 835.421 392.85 838.921 389.85C842.421 386.75 846.421 384.5 850.921 383.1C855.421 381.6 860.021 380.85 864.721 380.85C870.021 380.85 874.821 381.65 879.121 383.25C883.521 384.85 887.271 387.05 890.371 389.85C893.571 392.65 896.021 396 897.721 399.9C899.521 403.8 900.421 408.05 900.421 412.65C900.421 416.05 899.471 418.65 897.571 420.45C895.671 422.25 893.021 423.4 889.621 423.9L852.571 429.45C853.671 432.75 855.921 435.25 859.321 436.95C862.721 438.55 866.621 439.35 871.021 439.35C875.121 439.35 878.971 438.85 882.571 437.85C886.271 436.75 889.271 435.5 891.571 434.1C893.171 435.1 894.521 436.5 895.621 438.3C896.721 440.1 897.271 442 897.271 444C897.271 448.5 895.171 451.85 890.971 454.05C887.771 455.75 884.171 456.9 880.171 457.5C876.171 458.1 872.421 458.4 868.921 458.4ZM864.721 399.45C862.321 399.45 860.221 399.85 858.421 400.65C856.721 401.45 855.321 402.5 854.221 403.8C853.121 405 852.271 406.4 851.671 408C851.171 409.5 850.871 411.05 850.771 412.65L876.421 408.45C876.121 406.45 875.021 404.45 873.121 402.45C871.221 400.45 868.421 399.45 864.721 399.45ZM965.796 400.95C963.296 400.95 960.896 401.35 958.596 402.15C956.396 402.95 954.446 404.15 952.746 405.75C951.146 407.25 949.846 409.15 948.846 411.45C947.846 413.75 947.346 416.45 947.346 419.55C947.346 425.75 949.096 430.4 952.596 433.5C956.196 436.6 960.546 438.15 965.646 438.15C968.646 438.15 971.246 437.8 973.446 437.1C975.646 436.4 977.596 435.65 979.296 434.85C981.296 436.25 982.796 437.8 983.796 439.5C984.796 441.1 985.296 443.05 985.296 445.35C985.296 449.45 983.346 452.65 979.446 454.95C975.546 457.15 970.146 458.25 963.246 458.25C956.946 458.25 951.246 457.35 946.146 455.55C941.046 453.65 936.646 451.05 932.946 447.75C929.346 444.35 926.546 440.3 924.546 435.6C922.546 430.9 921.546 425.7 921.546 420C921.546 413.4 922.596 407.65 924.696 402.75C926.896 397.75 929.846 393.65 933.546 390.45C937.246 387.25 941.496 384.85 946.296 383.25C951.196 381.65 956.346 380.85 961.746 380.85C968.946 380.85 974.496 382.15 978.396 384.75C982.296 387.35 984.246 390.7 984.246 394.8C984.246 396.7 983.796 398.5 982.896 400.2C981.996 401.8 980.946 403.2 979.746 404.4C978.046 403.6 975.996 402.85 973.596 402.15C971.196 401.35 968.596 400.95 965.796 400.95ZM1081.33 442.8C1080.83 447.5 1079.43 451.1 1077.13 453.6C1074.93 456.1 1071.68 457.35 1067.38 457.35C1064.18 457.35 1061.33 456.6 1058.83 455.1C1056.33 453.5 1053.63 450.85 1050.73 447.15L1035.88 428.55V455.85C1034.78 456.05 1033.13 456.3 1030.93 456.6C1028.83 457 1026.68 457.2 1024.48 457.2C1022.28 457.2 1020.28 457.05 1018.48 456.75C1016.78 456.45 1015.33 455.85 1014.13 454.95C1012.93 454.05 1011.98 452.85 1011.28 451.35C1010.68 449.75 1010.38 447.7 1010.38 445.2V358.35C1011.48 358.05 1013.08 357.75 1015.18 357.45C1017.38 357.05 1019.58 356.85 1021.78 356.85C1023.98 356.85 1025.93 357 1027.63 357.3C1029.43 357.6 1030.93 358.2 1032.13 359.1C1033.33 360 1034.23 361.25 1034.83 362.85C1035.53 364.35 1035.88 366.35 1035.88 368.85V408.45L1061.68 382.05C1066.88 382.05 1071.03 383.2 1074.13 385.5C1077.33 387.8 1078.93 390.7 1078.93 394.2C1078.93 395.7 1078.68 397.1 1078.18 398.4C1077.68 399.6 1076.88 400.85 1075.78 402.15C1074.78 403.45 1073.43 404.85 1071.73 406.35C1070.13 407.75 1068.23 409.4 1066.03 411.3L1057.33 418.8L1081.33 442.8ZM1140.47 458.4C1134.57 458.4 1129.07 457.6 1123.97 456C1118.97 454.3 1114.57 451.8 1110.77 448.5C1107.07 445.2 1104.12 441.05 1101.92 436.05C1099.82 431.05 1098.77 425.2 1098.77 418.5C1098.77 411.9 1099.82 406.25 1101.92 401.55C1104.12 396.75 1106.97 392.85 1110.47 389.85C1113.97 386.75 1117.97 384.5 1122.47 383.1C1126.97 381.6 1131.57 380.85 1136.27 380.85C1141.57 380.85 1146.37 381.65 1150.67 383.25C1155.07 384.85 1158.82 387.05 1161.92 389.85C1165.12 392.65 1167.57 396 1169.27 399.9C1171.07 403.8 1171.97 408.05 1171.97 412.65C1171.97 416.05 1171.02 418.65 1169.12 420.45C1167.22 422.25 1164.57 423.4 1161.17 423.9L1124.12 429.45C1125.22 432.75 1127.47 435.25 1130.87 436.95C1134.27 438.55 1138.17 439.35 1142.57 439.35C1146.67 439.35 1150.52 438.85 1154.12 437.85C1157.82 436.75 1160.82 435.5 1163.12 434.1C1164.72 435.1 1166.07 436.5 1167.17 438.3C1168.27 440.1 1168.82 442 1168.82 444C1168.82 448.5 1166.72 451.85 1162.52 454.05C1159.32 455.75 1155.72 456.9 1151.72 457.5C1147.72 458.1 1143.97 458.4 1140.47 458.4ZM1136.27 399.45C1133.87 399.45 1131.77 399.85 1129.97 400.65C1128.27 401.45 1126.87 402.5 1125.77 403.8C1124.67 405 1123.82 406.4 1123.22 408C1122.72 409.5 1122.42 411.05 1122.32 412.65L1147.97 408.45C1147.67 406.45 1146.57 404.45 1144.67 402.45C1142.77 400.45 1139.97 399.45 1136.27 399.45ZM1221.74 455.85C1220.74 456.15 1219.14 456.45 1216.94 456.75C1214.84 457.05 1212.64 457.2 1210.34 457.2C1208.14 457.2 1206.14 457.05 1204.34 456.75C1202.64 456.45 1201.19 455.85 1199.99 454.95C1198.79 454.05 1197.84 452.85 1197.14 451.35C1196.54 449.75 1196.24 447.7 1196.24 445.2V400.2C1196.24 397.9 1196.64 395.95 1197.44 394.35C1198.34 392.65 1199.59 391.15 1201.19 389.85C1202.79 388.55 1204.74 387.4 1207.04 386.4C1209.44 385.3 1211.99 384.35 1214.69 383.55C1217.39 382.75 1220.19 382.15 1223.09 381.75C1225.99 381.25 1228.89 381 1231.79 381C1236.59 381 1240.39 381.95 1243.19 383.85C1245.99 385.65 1247.39 388.65 1247.39 392.85C1247.39 394.25 1247.19 395.65 1246.79 397.05C1246.39 398.35 1245.89 399.55 1245.29 400.65C1243.19 400.65 1241.04 400.75 1238.84 400.95C1236.64 401.15 1234.49 401.45 1232.39 401.85C1230.29 402.25 1228.29 402.7 1226.39 403.2C1224.59 403.6 1223.04 404.1 1221.74 404.7V455.85Z" fill="#00C9F8"/>
</g>
<defs>
<filter id="filter0_d_2_16" x="0" y="0" width="1600" height="640" filterUnits="userSpaceOnUse" color-interpolation-filters="sRGB">
<feFlood flood-opacity="0" result="BackgroundImageFix"/>
<feColorMatrix in="SourceAlpha" type="matrix" values="0 0 0 0 0 0 0 0 0 0 0 0 0 0 0 0 0 0 127 0" result="hardAlpha"/>
<feOffset dy="4"/>
<feGaussianBlur stdDeviation="2"/>
<feComposite in2="hardAlpha" operator="out"/>
<feColorMatrix type="matrix" values="0 0 0 0 0 0 0 0 0 0 0 0 0 0 0 0 0 0 0.25 0"/>
<feBlend mode="normal" in2="BackgroundImageFix" result="effect1_dropShadow_2_16"/>
<feBlend mode="normal" in="SourceGraphic" in2="effect1_dropShadow_2_16" result="shape"/>
</filter>
<clipPath id="clip0_2_16">
<rect width="1592" height="632" fill="white" transform="translate(4)"/>
</clipPath>
</defs>
</svg>
