<svg width="618" height="491" viewBox="0 0 618 491" fill="none" xmlns="http://www.w3.org/2000/svg">
<g clip-path="url(#clip0_2_12)">
<g filter="url(#filter0_d_2_12)">
<path d="M86 188.8C86 201.067 85.6 212.667 84.8 223.6C84.2667 234.533 82.2667 244.533 78.8 253.6C75.6 262.933 70.4 271.2 63.2 278.4C56 285.867 45.8667 292.133 32.8 297.2L31.2 293.6C44 288.267 53.7333 281.467 60.4 273.2C67.3333 264.933 70.8 253.6 70.8 239.2C70.8 229.867 69.7333 220.667 67.6 211.6C65.7333 202.267 63.6 193.067 61.2 184C58.8 174.667 56.5333 165.467 54.4 156.4C52.5333 147.067 51.6 137.6 51.6 128C51.6 118.667 52.8 109.6 55.2 100.8C45.8667 100.8 37.8667 102.4 31.2 105.6C24.5333 108.8 17.8667 113.467 11.2 119.6L7.2 118.8C14.1333 111.867 21.7333 106.267 30 102C38.2667 97.7333 47.3333 95.2 57.2 94.4C65.7333 66.4 78.6667 46.4 96 34.4C113.333 22.1333 136.533 16 165.6 16H220C213.067 18.1333 208.4 22.1333 206 28C203.867 33.8667 202.8 40 202.8 46.4V179.2C202.8 185.867 203.867 192.4 206 198.8C208.133 205.2 212.8 209.6 220 212H146C150.8 210.4 154.4 207.733 156.8 204C159.467 200.267 161.2 196 162 191.2C163.067 186.4 163.6 181.467 163.6 176.4C163.6 171.333 163.6 166.8 163.6 162.8C163.6 153.467 161.2 145.2 156.4 138C151.6 130.533 145.467 124.267 138 119.2C130.8 114.133 122.8 110.133 114 107.2C105.2 104.267 96.8 102.667 88.8 102.4C87.2 109.6 86.1333 116.933 85.6 124.4C85.0667 131.6 84.8 138.933 84.8 146.4C84.8 153.333 84.9333 160.4 85.2 167.6C85.7333 174.8 86 181.867 86 188.8ZM90 96C105.2 97.3333 119.333 102.133 132.4 110.4C145.733 118.4 156 129.2 163.2 142.8V41.2C163.2 35.8667 162.4 31.2 160.8 27.2C159.2 22.9333 155.2 20.8 148.8 20.8C140 20.8 132.267 23.4667 125.6 28.8C119.2 33.8667 113.6 40.2667 108.8 48C104 55.4667 100 63.6 96.8 72.4C93.8667 81.2 91.6 89.0667 90 96Z" fill="#7A7C7C"/>
</g>
<path d="M510.6 422.6C519.933 422.6 529.267 423.8 538.6 426.2C548.2 428.6 557.4 431.933 566.2 436.2C575.267 440.467 583.8 445.4 591.8 451C599.8 456.6 607 462.733 613.4 469.4L612.2 471.4C599.667 459.667 585.4 451.533 569.4 447C553.4 442.733 537 440.6 520.2 440.6C507.933 440.6 495.667 441.4 483.4 443C471.133 444.867 458.867 446.733 446.6 448.6C434.6 450.733 422.467 452.6 410.2 454.2C398.2 455.8 385.933 456.6 373.4 456.6C355.8 456.6 338.467 454.733 321.4 451C304.333 447.267 288.333 441.533 273.4 433.8C258.733 426.067 245.267 416.2 233 404.2C220.733 392.2 210.6 377.933 202.6 361.4C197.267 350.733 193.133 339.533 190.2 327.8C187.267 315.8 185.8 303.8 185.8 291.8C185.8 274.2 189.267 258.2 196.2 243.8C203.4 229.133 212.867 216.6 224.6 206.2C236.6 195.8 250.333 187.8 265.8 182.2C281.267 176.333 297.4 173.4 314.2 173.4H331C337.667 173.4 343.8 172.467 349.4 170.6C355.267 168.733 359.933 164.6 363.4 158.2L373.8 223C371.4 217.4 368.2 211.8 364.2 206.2C360.2 200.6 355.533 195.667 350.2 191.4C344.867 186.867 339.133 183.267 333 180.6C326.867 177.933 320.6 176.6 314.2 176.6C297.133 176.6 283.133 179.933 272.2 186.6C261.267 193.267 252.6 202.067 246.2 213C240.067 223.667 235.8 235.933 233.4 249.8C231 263.4 229.8 277.4 229.8 291.8C229.8 313.4 232.467 333.933 237.8 353.4C243.4 372.867 251.8 389.933 263 404.6C274.2 419.267 288.333 430.867 305.4 439.4C322.733 448.2 343.267 452.6 367 452.6C379.533 452.6 391.667 451 403.4 447.8C415.133 444.867 426.867 441.4 438.6 437.4C450.6 433.667 462.467 430.2 474.2 427C486.2 424.067 498.333 422.6 510.6 422.6Z" fill="#0CC0DF"/>
</g>
<defs>
<filter id="filter0_d_2_12" x="3.2" y="16" width="220.8" height="289.2" filterUnits="userSpaceOnUse" color-interpolation-filters="sRGB">
<feFlood flood-opacity="0" result="BackgroundImageFix"/>
<feColorMatrix in="SourceAlpha" type="matrix" values="0 0 0 0 0 0 0 0 0 0 0 0 0 0 0 0 0 0 127 0" result="hardAlpha"/>
<feOffset dy="4"/>
<feGaussianBlur stdDeviation="2"/>
<feComposite in2="hardAlpha" operator="out"/>
<feColorMatrix type="matrix" values="0 0 0 0 0 0 0 0 0 0 0 0 0 0 0 0 0 0 0.25 0"/>
<feBlend mode="normal" in2="BackgroundImageFix" result="effect1_dropShadow_2_12"/>
<feBlend mode="normal" in="SourceGraphic" in2="effect1_dropShadow_2_12" result="shape"/>
</filter>
<clipPath id="clip0_2_12">
<rect width="618" height="491" fill="white"/>
</clipPath>
</defs>
</svg>
